<svg xmlns="http://www.w3.org/2000/svg" viewBox="0 -10 430 500" role="img" aria-label="Акула — маскот студии MURA SHOW">
<defs><clipPath id="body"><path d="M306 4 C344 52 360 136 346 218 C336 292 304 352 252 388 C214 412 172 420 138 410 C100 394 72 332 70 252 C66 152 108 78 172 50 C212 34 262 18 306 4 Z"/></clipPath><clipPath id="mouth"><path d="M138 218 C196 204 268 198 322 204 C328 262 292 326 230 326 C176 326 144 276 138 218 Z"/></clipPath></defs>
<path d="M176 404 C150 436 96 456 34 444 C74 424 92 396 96 360 ZM160 408 C172 440 160 466 124 478 C132 452 126 430 112 410 Z" fill="#0A6CA6" stroke="#06263A" stroke-width="7" stroke-linejoin="round" stroke-linecap="round" /><path d="M112 118 C74 104 46 78 30 44 C76 44 124 62 160 92 Z" fill="#0A6CA6" stroke="#06263A" stroke-width="7" stroke-linejoin="round" stroke-linecap="round" />
<path d="M306 4 C344 52 360 136 346 218 C336 292 304 352 252 388 C214 412 172 420 138 410 C100 394 72 332 70 252 C66 152 108 78 172 50 C212 34 262 18 306 4 Z" fill="#0E86C8" stroke="#06263A" stroke-width="7" stroke-linejoin="round" stroke-linecap="round" />
<g clip-path="url(#body)"><ellipse cx="52" cy="250" rx="62" ry="190" fill="#0A6CA6"/>
<path d="M104 214 C160 168 270 150 352 176 C352 250 330 320 252 392 C196 380 128 310 104 214 Z" fill="#FBF4E6" stroke="#06263A" stroke-width="5"/>
<path d="M206 62 C232 48 262 38 288 34" fill="none" stroke="#39A5DD" stroke-width="9" stroke-linecap="round"/></g>
<path d="M306 4 C344 52 360 136 346 218 C336 292 304 352 252 388 C214 412 172 420 138 410 C100 394 72 332 70 252 C66 152 108 78 172 50 C212 34 262 18 306 4 Z" fill="none" stroke="#06263A" stroke-width="7" stroke-linecap="round" stroke-linejoin="round" />
<path d="M84 232 C92 242 94 254 92 266 M80 262 C88 272 90 284 88 296" fill="none" stroke="#06263A" stroke-width="5" stroke-linecap="round" stroke-linejoin="round" />
<g clip-path="url(#body)"><ellipse cx="106.3" cy="312.3" rx="13" ry="8.5" fill="#F6C21C" stroke="#06263A" stroke-width="4" transform="rotate(46 106.3 312.3)"/><ellipse cx="123.5" cy="327.9" rx="9" ry="5.5" fill="#B98A06" stroke="#06263A" stroke-width="4" transform="rotate(37 123.5 327.9)"/><ellipse cx="142.6" cy="340.5" rx="13" ry="8.5" fill="#F6C21C" stroke="#06263A" stroke-width="4" transform="rotate(28 142.6 340.5)"/><ellipse cx="163.3" cy="349.9" rx="9" ry="5.5" fill="#B98A06" stroke="#06263A" stroke-width="4" transform="rotate(19 163.3 349.9)"/><ellipse cx="185.1" cy="355.9" rx="13" ry="8.5" fill="#F6C21C" stroke="#06263A" stroke-width="4" transform="rotate(11 185.1 355.9)"/><ellipse cx="207.7" cy="358.5" rx="9" ry="5.5" fill="#B98A06" stroke="#06263A" stroke-width="4" transform="rotate(1 207.7 358.5)"/><ellipse cx="230.7" cy="357.5" rx="13" ry="8.5" fill="#F6C21C" stroke="#06263A" stroke-width="4" transform="rotate(-8 230.7 357.5)"/><ellipse cx="253.5" cy="352.6" rx="9" ry="5.5" fill="#B98A06" stroke="#06263A" stroke-width="4" transform="rotate(-17 253.5 352.6)"/><ellipse cx="275.8" cy="343.9" rx="13" ry="8.5" fill="#F6C21C" stroke="#06263A" stroke-width="4" transform="rotate(-27 275.8 343.9)"/><ellipse cx="297.2" cy="331.1" rx="9" ry="5.5" fill="#B98A06" stroke="#06263A" stroke-width="4" transform="rotate(-36 297.2 331.1)"/><ellipse cx="317.3" cy="314.1" rx="13" ry="8.5" fill="#F6C21C" stroke="#06263A" stroke-width="4" transform="rotate(-45 317.3 314.1)"/></g><path d="M138 218 C196 204 268 198 322 204 C328 262 292 326 230 326 C176 326 144 276 138 218 Z" fill="#0D2C42" stroke="#06263A" stroke-width="7" stroke-linejoin="round" stroke-linecap="round" /><g clip-path="url(#mouth)"><ellipse cx="234" cy="306" rx="56" ry="34" fill="#F0504E" stroke="#06263A" stroke-width="5"/><path d="M234 284 V322" stroke="#C93A3D" stroke-width="5" stroke-linecap="round"/></g><g clip-path="url(#mouth)"><path d="M140.1 213.5 L165.8 208.1 L152.9 244.8 Z" fill="#FFFFFF" stroke="#06263A" stroke-width="4" stroke-linejoin="round" stroke-linecap="round" /><path d="M170.2 207.3 L197.2 203.1 L183.7 239.2 Z" fill="#FFFFFF" stroke="#06263A" stroke-width="4" stroke-linejoin="round" stroke-linecap="round" /><path d="M201.8 202.5 L229.2 199.7 L215.5 235.1 Z" fill="#FFFFFF" stroke="#06263A" stroke-width="4" stroke-linejoin="round" stroke-linecap="round" /><path d="M233.8 199.3 L260.9 197.9 L247.4 232.6 Z" fill="#FFFFFF" stroke="#06263A" stroke-width="4" stroke-linejoin="round" stroke-linecap="round" /><path d="M265.4 197.8 L291.5 197.9 L278.5 231.9 Z" fill="#FFFFFF" stroke="#06263A" stroke-width="4" stroke-linejoin="round" stroke-linecap="round" /><path d="M295.8 198.1 L320.0 199.8 L307.9 232.9 Z" fill="#FFFFFF" stroke="#06263A" stroke-width="4" stroke-linejoin="round" stroke-linecap="round" /><path d="M153.2 274.4 L164.9 293.1 L180.6 273.2 Z" fill="#FFFFFF" stroke="#06263A" stroke-width="4" stroke-linejoin="round" stroke-linecap="round" /><path d="M176.0 305.8 L194.1 318.2 L199.2 292.7 Z" fill="#FFFFFF" stroke="#06263A" stroke-width="4" stroke-linejoin="round" stroke-linecap="round" /><path d="M208.1 323.9 L229.9 326.6 L223.0 301.6 Z" fill="#FFFFFF" stroke="#06263A" stroke-width="4" stroke-linejoin="round" stroke-linecap="round" /><path d="M231.8 326.8 L253.5 323.4 L239.4 301.3 Z" fill="#FFFFFF" stroke="#06263A" stroke-width="4" stroke-linejoin="round" stroke-linecap="round" /><path d="M272.4 315.4 L289.6 301.8 L265.9 290.0 Z" fill="#FFFFFF" stroke="#06263A" stroke-width="4" stroke-linejoin="round" stroke-linecap="round" /><path d="M303.5 284.9 L313.5 265.3 L285.9 267.1 Z" fill="#FFFFFF" stroke="#06263A" stroke-width="4" stroke-linejoin="round" stroke-linecap="round" /></g><path d="M138 218 C196 204 268 198 322 204 C328 262 292 326 230 326 C176 326 144 276 138 218 Z" fill="none" stroke="#06263A" stroke-width="7" stroke-linecap="round" stroke-linejoin="round" /><ellipse cx="178" cy="134" rx="27" ry="31" fill="#FFFFFF" stroke="#06263A" stroke-width="7" /><circle cx="187" cy="138" r="15" fill="#06263A"/><circle cx="193" cy="131" r="5.500" fill="#FFFFFF"/><ellipse cx="282" cy="124" rx="27" ry="31" fill="#FFFFFF" stroke="#06263A" stroke-width="7" /><circle cx="289" cy="128" r="15" fill="#06263A"/><circle cx="295" cy="121" r="5.500" fill="#FFFFFF"/>
<path d="M94 262 C62 272 42 300 44 334 C72 330 100 312 116 284 Z" fill="#0A6CA6" stroke="#06263A" stroke-width="7" stroke-linejoin="round" stroke-linecap="round" /><path d="M318 262 C344 250 356 226 352 200 C376 214 384 246 368 270 C354 288 332 290 316 282 Z" fill="#0A6CA6" stroke="#06263A" stroke-width="7" stroke-linejoin="round" stroke-linecap="round" /><path d="M352 214 L372 200 L404 246 L384 260 Z" fill="#16233A" stroke="#06263A" stroke-width="6" stroke-linejoin="round" stroke-linecap="round" /><ellipse cx="350" cy="196" rx="22" ry="22" fill="#9AA7B8" stroke="#06263A" stroke-width="6" /><path d="M338 186 C346 180 356 180 364 186 M336 198 C346 204 356 204 366 198" fill="none" stroke="#06263A" stroke-width="3" stroke-linecap="round" stroke-linejoin="round" /><path d="M204 356 L176 338 L176 380 Z M204 356 L232 338 L232 380 Z" fill="#E02C83" stroke="#06263A" stroke-width="5" stroke-linejoin="round" stroke-linecap="round" /><ellipse cx="204" cy="357" rx="8" ry="9" fill="#E02C83" stroke="#06263A" stroke-width="5" />
</svg>
